<svg width="100%" height="100%" fill="white" viewBox="0 0 35 30" version="1.1" xmlns="http://www.w3.org/2000/svg" xmlns:xlink="http://www.w3.org/1999/xlink" xml:space="preserve" xmlns:serif="http://www.serif.com/" style="fill-rule:evenodd;clip-rule:evenodd;stroke-linejoin:round;stroke-miterlimit:2;">
       <path id="Stack" d="M32.937,27.158C32.937,26.668 32.539,26.271 32.05,26.271L2.95,26.271C2.461,26.271 2.063,26.668 2.063,27.158L2.063,28.932C2.063,29.421 2.461,29.819 2.95,29.819L32.05,29.819C32.539,29.819 32.937,29.421 32.937,28.932L32.937,27.158ZM31.905,23.431C31.905,22.941 31.507,22.544 31.018,22.544L1.918,22.544C1.428,22.544 1.031,22.941 1.031,23.431L1.031,25.205C1.031,25.694 1.428,26.092 1.918,26.092L31.018,26.092C31.507,26.092 31.905,25.694 31.905,25.205L31.905,23.431ZM32.937,19.704C32.937,19.214 32.539,18.817 32.05,18.817L2.95,18.817C2.461,18.817 2.063,19.214 2.063,19.704L2.063,21.478C2.063,21.967 2.461,22.365 2.95,22.365L32.05,22.365C32.539,22.365 32.937,21.967 32.937,21.478L32.937,19.704ZM34.726,15.977C34.726,15.487 34.328,15.09 33.839,15.09L4.739,15.09C4.25,15.09 3.852,15.487 3.852,15.977L3.852,17.75C3.852,18.24 4.25,18.637 4.739,18.637L33.839,18.637C34.328,18.637 34.726,18.24 34.726,17.75L34.726,15.977ZM32.937,12.25C32.937,11.76 32.539,11.363 32.05,11.363L2.95,11.363C2.461,11.363 2.063,11.76 2.063,12.25L2.063,14.023C2.063,14.513 2.461,14.91 2.95,14.91L32.05,14.91C32.539,14.91 32.937,14.513 32.937,14.023L32.937,12.25ZM32.134,8.522C32.134,8.033 31.737,7.635 31.247,7.635L2.147,7.635C1.658,7.635 1.26,8.033 1.26,8.522L1.26,10.296C1.26,10.786 1.658,11.183 2.147,11.183L31.247,11.183C31.737,11.183 32.134,10.786 32.134,10.296L32.134,8.522ZM33.648,4.795C33.648,4.306 33.25,3.908 32.761,3.908L3.661,3.908C3.172,3.908 2.774,4.306 2.774,4.795L2.774,6.569C2.774,7.059 3.172,7.456 3.661,7.456L32.761,7.456C33.25,7.456 33.648,7.059 33.648,6.569L33.648,4.795ZM31.996,1.068C31.996,0.579 31.599,0.181 31.11,0.181L2.01,0.181C1.52,0.181 1.123,0.579 1.123,1.068L1.123,2.842C1.123,3.332 1.52,3.729 2.01,3.729L31.11,3.729C31.599,3.729 31.996,3.332 31.996,2.842L31.996,1.068Z" style="fill:rgb(255,255,255);"/>
    <clipPath id="_clip1">
        <path id="Stack1" serif:id="Stack" d="M32.937,27.158C32.937,26.668 32.539,26.271 32.05,26.271L2.95,26.271C2.461,26.271 2.063,26.668 2.063,27.158L2.063,28.932C2.063,29.421 2.461,29.819 2.95,29.819L32.05,29.819C32.539,29.819 32.937,29.421 32.937,28.932L32.937,27.158ZM31.905,23.431C31.905,22.941 31.507,22.544 31.018,22.544L1.918,22.544C1.428,22.544 1.031,22.941 1.031,23.431L1.031,25.205C1.031,25.694 1.428,26.092 1.918,26.092L31.018,26.092C31.507,26.092 31.905,25.694 31.905,25.205L31.905,23.431ZM32.937,19.704C32.937,19.214 32.539,18.817 32.05,18.817L2.95,18.817C2.461,18.817 2.063,19.214 2.063,19.704L2.063,21.478C2.063,21.967 2.461,22.365 2.95,22.365L32.05,22.365C32.539,22.365 32.937,21.967 32.937,21.478L32.937,19.704ZM34.726,15.977C34.726,15.487 34.328,15.09 33.839,15.09L4.739,15.09C4.25,15.09 3.852,15.487 3.852,15.977L3.852,17.75C3.852,18.24 4.25,18.637 4.739,18.637L33.839,18.637C34.328,18.637 34.726,18.24 34.726,17.75L34.726,15.977ZM32.937,12.25C32.937,11.76 32.539,11.363 32.05,11.363L2.95,11.363C2.461,11.363 2.063,11.76 2.063,12.25L2.063,14.023C2.063,14.513 2.461,14.91 2.95,14.91L32.05,14.91C32.539,14.91 32.937,14.513 32.937,14.023L32.937,12.25ZM32.134,8.522C32.134,8.033 31.737,7.635 31.247,7.635L2.147,7.635C1.658,7.635 1.26,8.033 1.26,8.522L1.26,10.296C1.26,10.786 1.658,11.183 2.147,11.183L31.247,11.183C31.737,11.183 32.134,10.786 32.134,10.296L32.134,8.522ZM33.648,4.795C33.648,4.306 33.25,3.908 32.761,3.908L3.661,3.908C3.172,3.908 2.774,4.306 2.774,4.795L2.774,6.569C2.774,7.059 3.172,7.456 3.661,7.456L32.761,7.456C33.25,7.456 33.648,7.059 33.648,6.569L33.648,4.795ZM31.996,1.068C31.996,0.579 31.599,0.181 31.11,0.181L2.01,0.181C1.52,0.181 1.123,0.579 1.123,1.068L1.123,2.842C1.123,3.332 1.52,3.729 2.01,3.729L31.11,3.729C31.599,3.729 31.996,3.332 31.996,2.842L31.996,1.068Z"/>
    </clipPath>
    <g clip-path="url(#_clip1)">
        <path id="Steam" d="M28.773,15C28.773,21.228 23.718,26.273 17.482,26.273C12.309,26.273 7.954,22.805 6.618,18.073L10.945,19.859C11.236,21.318 12.532,22.423 14.077,22.423C15.859,22.423 17.345,20.95 17.268,19.082L21.109,16.346C23.478,16.405 25.464,14.486 25.464,12.095C25.464,9.75 23.555,7.845 21.205,7.845C18.855,7.845 16.945,9.754 16.945,12.095L16.945,12.15L14.254,16.045C13.55,16.005 12.859,16.2 12.277,16.596L6.227,14.095C6.69,8.291 11.55,3.727 17.482,3.727C23.718,3.727 28.773,8.772 28.773,15ZM13.304,20.832L11.918,20.259C12.173,20.788 12.613,21.206 13.154,21.432C14.377,21.941 15.782,21.359 16.291,20.141C16.536,19.55 16.541,18.9 16.295,18.309C16.05,17.718 15.591,17.255 15,17.009C14.414,16.764 13.786,16.773 13.232,16.982L14.664,17.573C15.564,17.946 15.991,18.977 15.614,19.877C15.236,20.782 14.204,21.205 13.304,20.832ZM21.205,14.927C19.641,14.927 18.368,13.654 18.368,12.095C18.368,10.536 19.641,9.263 21.205,9.263C22.768,9.263 24.041,10.536 24.041,12.095C24.041,13.654 22.773,14.927 21.205,14.927ZM21.209,14.218C22.387,14.218 23.341,13.264 23.341,12.091C23.341,10.913 22.387,9.963 21.209,9.963C20.032,9.963 19.077,10.918 19.077,12.091C19.082,13.264 20.036,14.218 21.209,14.218Z" style="fill:url(#_Linear2);fill-rule:nonzero;"/>
    </g>
    <defs>
        <linearGradient id="_Linear2" x1="0" y1="0" x2="1" y2="0" gradientUnits="userSpaceOnUse" gradientTransform="matrix(8.77173,9.67396,-9.67396,8.77173,4.08205,3.77971)"><stop offset="0" style="stop-color:rgb(146,146,146);stop-opacity:1"/><stop offset="1" style="stop-color:rgb(95,95,95);stop-opacity:1"/></linearGradient>
    </defs>
</svg>
